<svg xmlns="http://www.w3.org/2000/svg" xmlns:xlink="http://www.w3.org/1999/xlink" contentStyleType="text/css" data-diagram-type="CLASS" height="589px" preserveAspectRatio="none" style="width:962px;height:589px;background:#FFFFFF;" version="1.1" viewBox="0 0 962 589" width="962px" zoomAndPan="magnify"><defs/><g><!--class User--><g class="entity" data-entity="User" data-source-line="1" data-uid="ent0002" id="entity_User"><rect fill="#F1F1F1" height="162.0781" rx="2.5" ry="2.5" style="stroke:#181818;stroke-width:0.5;" width="191.0811" x="353.76" y="7"/><ellipse cx="429.0954" cy="23" fill="#ADD1B2" rx="11" ry="11" style="stroke:#181818;stroke-width:1;"/><path d="M432.0642,28.6406 Q431.4861,28.9375 430.8454,29.0781 Q430.2048,29.2344 429.5017,29.2344 Q427.0017,29.2344 425.6736,27.5938 Q424.3611,25.9375 424.3611,22.8125 Q424.3611,19.6875 425.6736,18.0313 Q427.0017,16.375 429.5017,16.375 Q430.2048,16.375 430.8454,16.5313 Q431.5017,16.6875 432.0642,16.9844 L432.0642,19.7031 Q431.4392,19.125 430.8454,18.8594 Q430.2517,18.5781 429.6267,18.5781 Q428.2829,18.5781 427.5954,19.6563 Q426.9079,20.7188 426.9079,22.8125 Q426.9079,24.9063 427.5954,25.9844 Q428.2829,27.0469 429.6267,27.0469 Q430.2517,27.0469 430.8454,26.7813 Q431.4392,26.5 432.0642,25.9219 L432.0642,28.6406 Z " fill="#000000"/><text fill="#000000" font-family="sans-serif" font-size="14" lengthAdjust="spacing" textLength="31.9102" x="449.5954" y="27.8467">User</text><line style="stroke:#181818;stroke-width:0.5;" x1="354.76" x2="543.8411" y1="39" y2="39"/><ellipse cx="364.76" cy="52.6484" fill="none" rx="3" ry="3" style="stroke:#038048;stroke-width:1;"/><text fill="#000000" font-family="sans-serif" font-size="14" lengthAdjust="spacing" textLength="40.1953" x="373.76" y="55.9951">id: int</text><ellipse cx="364.76" cy="68.9453" fill="none" rx="3" ry="3" style="stroke:#038048;stroke-width:1;"/><text fill="#000000" font-family="sans-serif" font-size="14" lengthAdjust="spacing" textLength="89.0586" x="373.76" y="72.292">name: string</text><ellipse cx="364.76" cy="85.2422" fill="none" rx="3" ry="3" style="stroke:#038048;stroke-width:1;"/><text fill="#000000" font-family="sans-serif" font-size="14" lengthAdjust="spacing" textLength="87.9648" x="373.76" y="88.5889">email: string</text><ellipse cx="364.76" cy="101.5391" fill="none" rx="3" ry="3" style="stroke:#038048;stroke-width:1;"/><text fill="#000000" font-family="sans-serif" font-size="14" lengthAdjust="spacing" textLength="151.3408" x="373.76" y="104.8857">passwordHash: string</text><ellipse cx="364.76" cy="117.8359" fill="none" rx="3" ry="3" style="stroke:#038048;stroke-width:1;"/><text fill="#000000" font-family="sans-serif" font-size="14" lengthAdjust="spacing" textLength="98.6973" x="373.76" y="121.1826">role: UserRole</text><ellipse cx="364.76" cy="134.1328" fill="none" rx="3" ry="3" style="stroke:#038048;stroke-width:1;"/><text fill="#000000" font-family="sans-serif" font-size="14" lengthAdjust="spacing" textLength="165.0811" x="373.76" y="137.4795">registerDate: DateTime</text><line style="stroke:#181818;stroke-width:0.5;" x1="354.76" x2="543.8411" y1="144.7813" y2="144.7813"/><ellipse cx="364.76" cy="158.4297" fill="#84BE84" rx="3" ry="3" style="stroke:#038048;stroke-width:1;"/><text fill="#000000" font-family="sans-serif" font-size="14" lengthAdjust="spacing" textLength="81.8877" x="373.76" y="161.7764">editProfile()</text></g><!--class ProfessionalUser--><g class="entity" data-entity="ProfessionalUser" data-source-line="11" data-uid="ent0003" id="entity_ProfessionalUser"><rect fill="#F1F1F1" height="80.5938" rx="2.5" ry="2.5" style="stroke:#181818;stroke-width:0.5;" width="148.6006" x="7" y="286.82"/><ellipse cx="22" cy="302.82" fill="#ADD1B2" rx="11" ry="11" style="stroke:#181818;stroke-width:1;"/><path d="M24.9688,308.4606 Q24.3906,308.7575 23.75,308.8981 Q23.1094,309.0544 22.4063,309.0544 Q19.9063,309.0544 18.5781,307.4137 Q17.2656,305.7575 17.2656,302.6325 Q17.2656,299.5075 18.5781,297.8512 Q19.9063,296.195 22.4063,296.195 Q23.1094,296.195 23.75,296.3512 Q24.4063,296.5075 24.9688,296.8044 L24.9688,299.5231 Q24.3438,298.945 23.75,298.6794 Q23.1563,298.3981 22.5313,298.3981 Q21.1875,298.3981 20.5,299.4762 Q19.8125,300.5387 19.8125,302.6325 Q19.8125,304.7262 20.5,305.8044 Q21.1875,306.8669 22.5313,306.8669 Q23.1563,306.8669 23.75,306.6012 Q24.3438,306.32 24.9688,305.7419 L24.9688,308.4606 Z " fill="#000000"/><text fill="#000000" font-family="sans-serif" font-size="14" lengthAdjust="spacing" textLength="116.6006" x="36" y="307.6667">ProfessionalUser</text><line style="stroke:#181818;stroke-width:0.5;" x1="8" x2="154.6006" y1="318.82" y2="318.82"/><ellipse cx="18" cy="332.4684" fill="none" rx="3" ry="3" style="stroke:#038048;stroke-width:1;"/><text fill="#000000" font-family="sans-serif" font-size="14" lengthAdjust="spacing" textLength="91.3691" x="27" y="335.8151">agencyId: int</text><line style="stroke:#181818;stroke-width:0.5;" x1="8" x2="154.6006" y1="343.1169" y2="343.1169"/><ellipse cx="18" cy="356.7653" fill="#84BE84" rx="3" ry="3" style="stroke:#038048;stroke-width:1;"/><text fill="#000000" font-family="sans-serif" font-size="14" lengthAdjust="spacing" textLength="121.6729" x="27" y="360.112">accessAnalytics()</text></g><!--class Property--><g class="entity" data-entity="Property" data-source-line="16" data-uid="ent0004" id="entity_Property"><rect fill="#F1F1F1" height="162.0781" rx="2.5" ry="2.5" style="stroke:#181818;stroke-width:0.5;" width="190.418" x="191.09" y="246.08"/><ellipse cx="252.152" cy="262.08" fill="#ADD1B2" rx="11" ry="11" style="stroke:#181818;stroke-width:1;"/><path d="M255.1208,267.7206 Q254.5426,268.0175 253.902,268.1581 Q253.2614,268.3144 252.5583,268.3144 Q250.0583,268.3144 248.7301,266.6737 Q247.4176,265.0175 247.4176,261.8925 Q247.4176,258.7675 248.7301,257.1112 Q250.0583,255.455 252.5583,255.455 Q253.2614,255.455 253.902,255.6112 Q254.5583,255.7675 255.1208,256.0644 L255.1208,258.7831 Q254.4958,258.205 253.902,257.9394 Q253.3083,257.6581 252.6833,257.6581 Q251.3395,257.6581 250.652,258.7362 Q249.9645,259.7987 249.9645,261.8925 Q249.9645,263.9862 250.652,265.0644 Q251.3395,266.1269 252.6833,266.1269 Q253.3083,266.1269 253.902,265.8612 Q254.4958,265.58 255.1208,265.0019 L255.1208,267.7206 Z " fill="#000000"/><text fill="#000000" font-family="sans-serif" font-size="14" lengthAdjust="spacing" textLength="59.7939" x="272.652" y="266.9267">Property</text><line style="stroke:#181818;stroke-width:0.5;" x1="192.09" x2="380.508" y1="278.08" y2="278.08"/><ellipse cx="202.09" cy="291.7284" fill="none" rx="3" ry="3" style="stroke:#038048;stroke-width:1;"/><text fill="#000000" font-family="sans-serif" font-size="14" lengthAdjust="spacing" textLength="40.1953" x="211.09" y="295.0751">id: int</text><ellipse cx="202.09" cy="308.0253" fill="none" rx="3" ry="3" style="stroke:#038048;stroke-width:1;"/><text fill="#000000" font-family="sans-serif" font-size="14" lengthAdjust="spacing" textLength="76.7266" x="211.09" y="311.372">title: string</text><ellipse cx="202.09" cy="324.3222" fill="none" rx="3" ry="3" style="stroke:#038048;stroke-width:1;"/><text fill="#000000" font-family="sans-serif" font-size="14" lengthAdjust="spacing" textLength="127.1963" x="211.09" y="327.6689">description: string</text><ellipse cx="202.09" cy="340.6191" fill="none" rx="3" ry="3" style="stroke:#038048;stroke-width:1;"/><text fill="#000000" font-family="sans-serif" font-size="14" lengthAdjust="spacing" textLength="104.9043" x="211.09" y="343.9657">location: string</text><ellipse cx="202.09" cy="356.9159" fill="none" rx="3" ry="3" style="stroke:#038048;stroke-width:1;"/><text fill="#000000" font-family="sans-serif" font-size="14" lengthAdjust="spacing" textLength="75.4619" x="211.09" y="360.2626">price: float</text><ellipse cx="202.09" cy="373.2128" fill="none" rx="3" ry="3" style="stroke:#038048;stroke-width:1;"/><text fill="#000000" font-family="sans-serif" font-size="14" lengthAdjust="spacing" textLength="156.5908" x="211.09" y="376.5595">status: PropertyStatus</text><ellipse cx="202.09" cy="389.5097" fill="none" rx="3" ry="3" style="stroke:#038048;stroke-width:1;"/><text fill="#000000" font-family="sans-serif" font-size="14" lengthAdjust="spacing" textLength="164.418" x="211.09" y="392.8564">createdDate: DateTime</text><line style="stroke:#181818;stroke-width:0.5;" x1="192.09" x2="380.508" y1="400.1581" y2="400.1581"/></g><!--class SearchCriteria--><g class="entity" data-entity="SearchCriteria" data-source-line="26" data-uid="ent0005" id="entity_SearchCriteria"><rect fill="#F1F1F1" height="129.4844" rx="2.5" ry="2.5" style="stroke:#181818;stroke-width:0.5;" width="142.3135" x="416.14" y="262.38"/><ellipse cx="435.7121" cy="278.38" fill="#ADD1B2" rx="11" ry="11" style="stroke:#181818;stroke-width:1;"/><path d="M438.6808,284.0206 Q438.1027,284.3175 437.4621,284.4581 Q436.8214,284.6144 436.1183,284.6144 Q433.6183,284.6144 432.2902,282.9737 Q430.9777,281.3175 430.9777,278.1925 Q430.9777,275.0675 432.2902,273.4112 Q433.6183,271.755 436.1183,271.755 Q436.8214,271.755 437.4621,271.9112 Q438.1183,272.0675 438.6808,272.3644 L438.6808,275.0831 Q438.0558,274.505 437.4621,274.2394 Q436.8683,273.9581 436.2433,273.9581 Q434.8996,273.9581 434.2121,275.0362 Q433.5246,276.0987 433.5246,278.1925 Q433.5246,280.2862 434.2121,281.3644 Q434.8996,282.4269 436.2433,282.4269 Q436.8683,282.4269 437.4621,282.1612 Q438.0558,281.88 438.6808,281.3019 L438.6808,284.0206 Z " fill="#000000"/><text fill="#000000" font-family="sans-serif" font-size="14" lengthAdjust="spacing" textLength="100.1533" x="450.7281" y="283.2267">SearchCriteria</text><line style="stroke:#181818;stroke-width:0.5;" x1="417.14" x2="557.4535" y1="294.38" y2="294.38"/><ellipse cx="427.14" cy="308.0284" fill="none" rx="3" ry="3" style="stroke:#038048;stroke-width:1;"/><text fill="#000000" font-family="sans-serif" font-size="14" lengthAdjust="spacing" textLength="40.1953" x="436.14" y="311.3751">id: int</text><ellipse cx="427.14" cy="324.3253" fill="none" rx="3" ry="3" style="stroke:#038048;stroke-width:1;"/><text fill="#000000" font-family="sans-serif" font-size="14" lengthAdjust="spacing" textLength="116.3135" x="436.14" y="327.672">keywords: string</text><ellipse cx="427.14" cy="340.6222" fill="none" rx="3" ry="3" style="stroke:#038048;stroke-width:1;"/><text fill="#000000" font-family="sans-serif" font-size="14" lengthAdjust="spacing" textLength="101.418" x="436.14" y="343.9689">minPrice: float</text><ellipse cx="427.14" cy="356.9191" fill="none" rx="3" ry="3" style="stroke:#038048;stroke-width:1;"/><text fill="#000000" font-family="sans-serif" font-size="14" lengthAdjust="spacing" textLength="105.5195" x="436.14" y="360.2657">maxPrice: float</text><ellipse cx="427.14" cy="373.2159" fill="none" rx="3" ry="3" style="stroke:#038048;stroke-width:1;"/><text fill="#000000" font-family="sans-serif" font-size="14" lengthAdjust="spacing" textLength="104.9043" x="436.14" y="376.5626">location: string</text><line style="stroke:#181818;stroke-width:0.5;" x1="417.14" x2="557.4535" y1="383.8644" y2="383.8644"/></g><!--class Photo--><g class="entity" data-entity="Photo" data-source-line="34" data-uid="ent0006" id="entity_Photo"><rect fill="#F1F1F1" height="96.8906" rx="2.5" ry="2.5" style="stroke:#181818;stroke-width:0.5;" width="183.5684" x="194.52" y="485.16"/><ellipse cx="262.0864" cy="501.16" fill="#ADD1B2" rx="11" ry="11" style="stroke:#181818;stroke-width:1;"/><path d="M265.0552,506.8006 Q264.477,507.0975 263.8364,507.2381 Q263.1958,507.3944 262.4927,507.3944 Q259.9927,507.3944 258.6645,505.7537 Q257.352,504.0975 257.352,500.9725 Q257.352,497.8475 258.6645,496.1912 Q259.9927,494.535 262.4927,494.535 Q263.1958,494.535 263.8364,494.6912 Q264.4927,494.8475 265.0552,495.1444 L265.0552,497.8631 Q264.4302,497.285 263.8364,497.0194 Q263.2427,496.7381 262.6177,496.7381 Q261.2739,496.7381 260.5864,497.8162 Q259.8989,498.8787 259.8989,500.9725 Q259.8989,503.0662 260.5864,504.1444 Q261.2739,505.2069 262.6177,505.2069 Q263.2427,505.2069 263.8364,504.9412 Q264.4302,504.66 265.0552,504.0819 L265.0552,506.8006 Z " fill="#000000"/><text fill="#000000" font-family="sans-serif" font-size="14" lengthAdjust="spacing" textLength="39.9355" x="282.5864" y="506.0067">Photo</text><line style="stroke:#181818;stroke-width:0.5;" x1="195.52" x2="377.0884" y1="517.16" y2="517.16"/><ellipse cx="205.52" cy="530.8084" fill="none" rx="3" ry="3" style="stroke:#038048;stroke-width:1;"/><text fill="#000000" font-family="sans-serif" font-size="14" lengthAdjust="spacing" textLength="40.1953" x="214.52" y="534.1551">id: int</text><ellipse cx="205.52" cy="547.1053" fill="none" rx="3" ry="3" style="stroke:#038048;stroke-width:1;"/><text fill="#000000" font-family="sans-serif" font-size="14" lengthAdjust="spacing" textLength="67.874" x="214.52" y="550.452">url: string</text><ellipse cx="205.52" cy="563.4022" fill="none" rx="3" ry="3" style="stroke:#038048;stroke-width:1;"/><text fill="#000000" font-family="sans-serif" font-size="14" lengthAdjust="spacing" textLength="157.5684" x="214.52" y="566.7489">uploadedAt: DateTime</text><line style="stroke:#181818;stroke-width:0.5;" x1="195.52" x2="377.0884" y1="574.0506" y2="574.0506"/></g><!--class Notification--><g class="entity" data-entity="Notification" data-source-line="40" data-uid="ent0007" id="entity_Notification"><rect fill="#F1F1F1" height="113.1875" rx="2.5" ry="2.5" style="stroke:#181818;stroke-width:0.5;" width="148.6572" x="592.97" y="270.53"/><ellipse cx="624.3177" cy="286.53" fill="#ADD1B2" rx="11" ry="11" style="stroke:#181818;stroke-width:1;"/><path d="M627.2864,292.1706 Q626.7083,292.4675 626.0677,292.6081 Q625.427,292.7644 624.7239,292.7644 Q622.2239,292.7644 620.8958,291.1238 Q619.5833,289.4675 619.5833,286.3425 Q619.5833,283.2175 620.8958,281.5613 Q622.2239,279.905 624.7239,279.905 Q625.427,279.905 626.0677,280.0613 Q626.7239,280.2175 627.2864,280.5144 L627.2864,283.2331 Q626.6614,282.655 626.0677,282.3894 Q625.4739,282.1081 624.8489,282.1081 Q623.5052,282.1081 622.8177,283.1863 Q622.1302,284.2488 622.1302,286.3425 Q622.1302,288.4363 622.8177,289.5144 Q623.5052,290.5769 624.8489,290.5769 Q625.4739,290.5769 626.0677,290.3113 Q626.6614,290.03 627.2864,289.4519 L627.2864,292.1706 Z " fill="#000000"/><text fill="#000000" font-family="sans-serif" font-size="14" lengthAdjust="spacing" textLength="80.3291" x="641.9505" y="291.3767">Notification</text><line style="stroke:#181818;stroke-width:0.5;" x1="593.97" x2="740.6272" y1="302.53" y2="302.53"/><ellipse cx="603.97" cy="316.1784" fill="none" rx="3" ry="3" style="stroke:#038048;stroke-width:1;"/><text fill="#000000" font-family="sans-serif" font-size="14" lengthAdjust="spacing" textLength="40.1953" x="612.97" y="319.5251">id: int</text><ellipse cx="603.97" cy="332.4753" fill="none" rx="3" ry="3" style="stroke:#038048;stroke-width:1;"/><text fill="#000000" font-family="sans-serif" font-size="14" lengthAdjust="spacing" textLength="112.2734" x="612.97" y="335.822">message: string</text><ellipse cx="603.97" cy="348.7722" fill="none" rx="3" ry="3" style="stroke:#038048;stroke-width:1;"/><text fill="#000000" font-family="sans-serif" font-size="14" lengthAdjust="spacing" textLength="122.6572" x="612.97" y="352.1189">sentAt: DateTime</text><ellipse cx="603.97" cy="365.0691" fill="none" rx="3" ry="3" style="stroke:#038048;stroke-width:1;"/><text fill="#000000" font-family="sans-serif" font-size="14" lengthAdjust="spacing" textLength="112.1299" x="612.97" y="368.4157">isRead: boolean</text><line style="stroke:#181818;stroke-width:0.5;" x1="593.97" x2="740.6272" y1="375.7175" y2="375.7175"/></g><!--class ModerationLog--><g class="entity" data-entity="ModerationLog" data-source-line="47" data-uid="ent0008" id="entity_ModerationLog"><rect fill="#F1F1F1" height="129.4844" rx="2.5" ry="2.5" style="stroke:#181818;stroke-width:0.5;" width="178.8379" x="776.88" y="262.38"/><ellipse cx="810.9101" cy="278.38" fill="#ADD1B2" rx="11" ry="11" style="stroke:#181818;stroke-width:1;"/><path d="M813.8788,284.0206 Q813.3007,284.3175 812.6601,284.4581 Q812.0195,284.6144 811.3163,284.6144 Q808.8163,284.6144 807.4882,282.9737 Q806.1757,281.3175 806.1757,278.1925 Q806.1757,275.0675 807.4882,273.4112 Q808.8163,271.755 811.3163,271.755 Q812.0195,271.755 812.6601,271.9112 Q813.3163,272.0675 813.8788,272.3644 L813.8788,275.0831 Q813.2538,274.505 812.6601,274.2394 Q812.0663,273.9581 811.4413,273.9581 Q810.0976,273.9581 809.4101,275.0362 Q808.7226,276.0987 808.7226,278.1925 Q808.7226,280.2862 809.4101,281.3644 Q810.0976,282.4269 811.4413,282.4269 Q812.0663,282.4269 812.6601,282.1612 Q813.2538,281.88 813.8788,281.3019 L813.8788,284.0206 Z " fill="#000000"/><text fill="#000000" font-family="sans-serif" font-size="14" lengthAdjust="spacing" textLength="104.5488" x="829.139" y="283.2267">ModerationLog</text><line style="stroke:#181818;stroke-width:0.5;" x1="777.88" x2="954.7179" y1="294.38" y2="294.38"/><ellipse cx="787.88" cy="308.0284" fill="none" rx="3" ry="3" style="stroke:#038048;stroke-width:1;"/><text fill="#000000" font-family="sans-serif" font-size="14" lengthAdjust="spacing" textLength="40.1953" x="796.88" y="311.3751">id: int</text><ellipse cx="787.88" cy="324.3253" fill="none" rx="3" ry="3" style="stroke:#038048;stroke-width:1;"/><text fill="#000000" font-family="sans-serif" font-size="14" lengthAdjust="spacing" textLength="100.6729" x="796.88" y="327.672">propertyId: int</text><ellipse cx="787.88" cy="340.6222" fill="none" rx="3" ry="3" style="stroke:#038048;stroke-width:1;"/><text fill="#000000" font-family="sans-serif" font-size="14" lengthAdjust="spacing" textLength="114.2832" x="796.88" y="343.9689">moderatorId: int</text><ellipse cx="787.88" cy="356.9191" fill="none" rx="3" ry="3" style="stroke:#038048;stroke-width:1;"/><text fill="#000000" font-family="sans-serif" font-size="14" lengthAdjust="spacing" textLength="92.4492" x="796.88" y="360.2657">action: string</text><ellipse cx="787.88" cy="373.2159" fill="none" rx="3" ry="3" style="stroke:#038048;stroke-width:1;"/><text fill="#000000" font-family="sans-serif" font-size="14" lengthAdjust="spacing" textLength="152.8379" x="796.88" y="376.5626">timestamp: DateTime</text><line style="stroke:#181818;stroke-width:0.5;" x1="777.88" x2="954.7179" y1="383.8644" y2="383.8644"/></g><!--class Admin--><g class="entity" data-entity="Admin" data-source-line="60" data-uid="ent0014" id="entity_Admin"><rect fill="#F1F1F1" height="48" rx="2.5" ry="2.5" style="stroke:#181818;stroke-width:0.5;" width="76.8643" x="827.87" y="64.04"/><ellipse cx="842.87" cy="80.04" fill="#ADD1B2" rx="11" ry="11" style="stroke:#181818;stroke-width:1;"/><path d="M845.8388,85.6806 Q845.2606,85.9775 844.62,86.1181 Q843.9794,86.2744 843.2763,86.2744 Q840.7763,86.2744 839.4481,84.6337 Q838.1356,82.9775 838.1356,79.8525 Q838.1356,76.7275 839.4481,75.0712 Q840.7763,73.415 843.2763,73.415 Q843.9794,73.415 844.62,73.5712 Q845.2763,73.7275 845.8388,74.0244 L845.8388,76.7431 Q845.2138,76.165 844.62,75.8994 Q844.0263,75.6181 843.4013,75.6181 Q842.0575,75.6181 841.37,76.6962 Q840.6825,77.7587 840.6825,79.8525 Q840.6825,81.9462 841.37,83.0244 Q842.0575,84.0869 843.4013,84.0869 Q844.0263,84.0869 844.62,83.8212 Q845.2138,83.54 845.8388,82.9619 L845.8388,85.6806 Z " fill="#000000"/><text fill="#000000" font-family="sans-serif" font-size="14" lengthAdjust="spacing" textLength="44.8643" x="856.87" y="84.8867">Admin</text><line style="stroke:#181818;stroke-width:0.5;" x1="828.87" x2="903.7343" y1="96.04" y2="96.04"/><line style="stroke:#181818;stroke-width:0.5;" x1="828.87" x2="903.7343" y1="104.04" y2="104.04"/></g><!--reverse link User to ProfessionalUser--><g class="link" data-entity-1="User" data-entity-2="ProfessionalUser" data-source-line="55" data-uid="lnk9" id="link_User_ProfessionalUser"><path codeLine="55" d="M337.6322,145.9303 C283.1722,174.9303 230.53,205.51 173.3,246.08 C156.2,258.2 138.57,272.92 123.37,286.41" fill="none" id="User-backto-ProfessionalUser" style="stroke:#181818;stroke-width:1;"/><polygon fill="none" points="353.52,137.47,334.8121,140.6343,340.4523,151.2262,353.52,137.47" style="stroke:#181818;stroke-width:1;"/></g><!--link User to Property--><g class="link" data-entity-1="User" data-entity-2="Property" data-source-line="56" data-uid="lnk10" id="link_User_Property"><path codeLine="56" d="M394.12,169.31 C377.12,194.02 361.8194,216.2859 344.8294,240.9959" fill="none" id="User-to-Property" style="stroke:#181818;stroke-width:1;"/><polygon fill="#181818" points="341.43,245.94,349.8252,240.7902,344.2629,241.8199,343.2331,236.2576,341.43,245.94" style="stroke:#181818;stroke-width:1;"/><text fill="#000000" font-family="sans-serif" font-size="13" lengthAdjust="spacing" textLength="34.8486" x="374.3" y="212.1469">posts</text><text fill="#000000" font-family="sans-serif" font-size="13" lengthAdjust="spacing" textLength="6.5" x="340.0952" y="235.1148">*</text></g><!--link User to SearchCriteria--><g class="link" data-entity-1="User" data-entity-2="SearchCriteria" data-source-line="57" data-uid="lnk11" id="link_User_SearchCriteria"><path codeLine="57" d="M462.17,169.31 C467.01,199.53 471.5,227.5457 476.08,256.1057" fill="none" id="User-to-SearchCriteria" style="stroke:#181818;stroke-width:1;"/><polygon fill="#181818" points="477.03,262.03,479.5545,252.5102,476.2383,257.0931,471.6554,253.7769,477.03,262.03" style="stroke:#181818;stroke-width:1;"/><text fill="#000000" font-family="sans-serif" font-size="13" lengthAdjust="spacing" textLength="37.2036" x="471.3" y="212.1469">saves</text><text fill="#000000" font-family="sans-serif" font-size="13" lengthAdjust="spacing" textLength="6.5" x="469.6063" y="251.1644">*</text></g><!--link User to Notification--><g class="link" data-entity-1="User" data-entity-2="Notification" data-source-line="58" data-uid="lnk12" id="link_User_Notification"><path codeLine="58" d="M523.11,169.31 C553.62,202.49 584.1894,235.7328 611.8594,265.8328" fill="none" id="User-to-Notification" style="stroke:#181818;stroke-width:1;"/><polygon fill="#181818" points="615.92,270.25,612.7739,260.9171,612.5362,266.569,606.8843,266.3313,615.92,270.25" style="stroke:#181818;stroke-width:1;"/><text fill="#000000" font-family="sans-serif" font-size="13" lengthAdjust="spacing" textLength="54.5645" x="566.3" y="212.1469">receives</text><text fill="#000000" font-family="sans-serif" font-size="13" lengthAdjust="spacing" textLength="6.5" x="603.3231" y="259.4794">*</text></g><!--link Property to Photo--><g class="link" data-entity-1="Property" data-entity-2="Photo" data-source-line="59" data-uid="lnk13" id="link_Property_Photo"><path codeLine="59" d="M286.3,408.64 C286.3,434.46 286.3,456.22 286.3,478.9" fill="none" id="Property-to-Photo" style="stroke:#181818;stroke-width:1;"/><polygon fill="#181818" points="286.3,484.9,290.3,475.9,286.3,479.9,282.3,475.9,286.3,484.9" style="stroke:#181818;stroke-width:1;"/><text fill="#000000" font-family="sans-serif" font-size="13" lengthAdjust="spacing" textLength="55.0278" x="287.3" y="451.2269">contains</text><text fill="#000000" font-family="sans-serif" font-size="13" lengthAdjust="spacing" textLength="6.5" x="279.9127" y="474.0724">*</text></g><!--link Admin to ModerationLog--><g class="link" data-entity-1="Admin" data-entity-2="ModerationLog" data-source-line="60" data-uid="lnk15" id="link_Admin_ModerationLog"><path codeLine="60" d="M866.3,112.21 C866.3,146.58 866.3,206.36 866.3,255.94" fill="none" id="Admin-to-ModerationLog" style="stroke:#181818;stroke-width:1;"/><polygon fill="#181818" points="866.3,261.94,870.3,252.94,866.3,256.94,862.3,252.94,866.3,261.94" style="stroke:#181818;stroke-width:1;"/><text fill="#000000" font-family="sans-serif" font-size="13" lengthAdjust="spacing" textLength="48.8135" x="867.3" y="212.1469">records</text><text fill="#000000" font-family="sans-serif" font-size="13" lengthAdjust="spacing" textLength="6.5" x="860.0165" y="251.5184">*</text></g><!--SRC=[RLBRJiCm37tlLqHxugB-G8MG9dW02T2qmGUOnDiisgIAFM02_XqdGxtoKgN7zZcsZsqDpEQ5CPglmfXBSfKXB-dfeS7Ai4Jok_IF3L0z15ej_GZHtG7lXtWCjHOcphM-Ce8xOi5u2wAHz7sc9aVGaQnYs5ADP-V5Jr7Ot522a9c2Xxfl3dRexV6-Rn6irQob9Xs5B4yOMenod8qb9FLeBeTi8xMYOaEu3XQcM1l9Qkss3f2vM40EN7LYc_oV8ZQYJkac0tVTRH2YtTz4qgKGp7fymsDQB0-r6_AhYNm3drDerdM_a7sGC5Cwn96bXrQ97Bgb_DVrKn3QqabWnjIe4shGa8tHouWfLV0QGQjUWzu6-9xyCJYCcVeXx6RixT-61-Otfu8GHmSnjKnKLsrgsl50-QYklijoTcgdK5bUcyN5eZ-ZohI1XSVHYOsg2-yuoHajhJ8HBL9AwfWxgMnGPMpm0kIvM3hrl0kFzvE9qedy0W00]--></g></svg>