<svg xmlns="http://www.w3.org/2000/svg" xmlns:xlink="http://www.w3.org/1999/xlink" contentStyleType="text/css" data-diagram-type="DESCRIPTION" height="410px" preserveAspectRatio="none" style="width:663px;height:410px;background:#FFFFFF;" version="1.1" viewBox="0 0 663 410" width="663px" zoomAndPan="magnify"><defs/><g><!--cluster Web App--><g class="cluster" data-entity="Web App" data-source-line="1" data-uid="ent0002" id="cluster_Web App"><path d="M221.5,78.3 L293.2109,78.3 A3.75,3.75 0 0 1 295.7109,80.8 L302.7109,100.5969 L450.5,100.5969 A2.5,2.5 0 0 1 453,103.0969 L453,279.39 A2.5,2.5 0 0 1 450.5,281.89 L221.5,281.89 A2.5,2.5 0 0 1 219,279.39 L219,80.8 A2.5,2.5 0 0 1 221.5,78.3" fill="none" style="stroke:#000000;stroke-width:1.5;"/><line style="stroke:#000000;stroke-width:1.5;" x1="219" x2="302.7109" y1="100.5969" y2="100.5969"/><text fill="#000000" font-family="sans-serif" font-size="14" font-weight="bold" lengthAdjust="spacing" textLength="70.7109" x="223" y="93.2951">Web App</text></g><!--cluster Services--><g class="cluster" data-entity="Services" data-source-line="5" data-uid="ent0006" id="cluster_Services"><path d="M8.5,305.89 L76.0342,305.89 A3.75,3.75 0 0 1 78.5342,308.39 L85.5342,328.1869 L653.5,328.1869 A2.5,2.5 0 0 1 656,330.6869 L656,400.69 A2.5,2.5 0 0 1 653.5,403.19 L8.5,403.19 A2.5,2.5 0 0 1 6,400.69 L6,308.39 A2.5,2.5 0 0 1 8.5,305.89" fill="none" style="stroke:#000000;stroke-width:1.5;"/><line style="stroke:#000000;stroke-width:1.5;" x1="6" x2="85.5342" y1="328.1869" y2="328.1869"/><text fill="#000000" font-family="sans-serif" font-size="14" font-weight="bold" lengthAdjust="spacing" textLength="66.5342" x="10" y="320.8851">Services</text></g><!--entity Blazor Frontend--><g class="entity" data-entity="Blazor Frontend" data-source-line="2" data-uid="ent0003" id="entity_Blazor Frontend"><rect fill="#F1F1F1" height="46.2969" rx="2.5" ry="2.5" style="stroke:#181818;stroke-width:0.5;" width="151.3027" x="260.35" y="113.3"/><rect fill="#F1F1F1" height="10" style="stroke:#181818;stroke-width:0.5;" width="15" x="391.6527" y="118.3"/><rect fill="#F1F1F1" height="2" style="stroke:#181818;stroke-width:0.5;" width="4" x="389.6527" y="120.3"/><rect fill="#F1F1F1" height="2" style="stroke:#181818;stroke-width:0.5;" width="4" x="389.6527" y="124.3"/><text fill="#000000" font-family="sans-serif" font-size="14" lengthAdjust="spacing" textLength="111.3027" x="275.35" y="146.2951">Blazor Frontend</text></g><!--entity ASP.NET Core Backend--><g class="entity" data-entity="ASP.NET Core Backend" data-source-line="2" data-uid="ent0004" id="entity_ASP.NET Core Backend"><rect fill="#F1F1F1" height="46.2969" rx="2.5" ry="2.5" style="stroke:#181818;stroke-width:0.5;" width="201.1982" x="235.4" y="219.6"/><rect fill="#F1F1F1" height="10" style="stroke:#181818;stroke-width:0.5;" width="15" x="416.5982" y="224.6"/><rect fill="#F1F1F1" height="2" style="stroke:#181818;stroke-width:0.5;" width="4" x="414.5982" y="226.6"/><rect fill="#F1F1F1" height="2" style="stroke:#181818;stroke-width:0.5;" width="4" x="414.5982" y="230.6"/><text fill="#000000" font-family="sans-serif" font-size="14" lengthAdjust="spacing" textLength="161.1982" x="250.4" y="252.5951">ASP.NET Core Backend</text></g><!--entity PostgreSQL Database--><g class="entity" data-entity="PostgreSQL Database" data-source-line="6" data-uid="ent0007" id="entity_PostgreSQL Database"><rect fill="#F1F1F1" height="46.2969" rx="2.5" ry="2.5" style="stroke:#181818;stroke-width:0.5;" width="192.0039" x="22" y="340.89"/><rect fill="#F1F1F1" height="10" style="stroke:#181818;stroke-width:0.5;" width="15" x="194.0039" y="345.89"/><rect fill="#F1F1F1" height="2" style="stroke:#181818;stroke-width:0.5;" width="4" x="192.0039" y="347.89"/><rect fill="#F1F1F1" height="2" style="stroke:#181818;stroke-width:0.5;" width="4" x="192.0039" y="351.89"/><text fill="#000000" font-family="sans-serif" font-size="14" lengthAdjust="spacing" textLength="152.0039" x="37" y="373.8851">PostgreSQL Database</text></g><!--entity Azure Blob Storage--><g class="entity" data-entity="Azure Blob Storage" data-source-line="7" data-uid="ent0009" id="entity_Azure Blob Storage"><rect fill="#F1F1F1" height="46.2969" rx="2.5" ry="2.5" style="stroke:#181818;stroke-width:0.5;" width="174.791" x="248.6" y="340.89"/><rect fill="#F1F1F1" height="10" style="stroke:#181818;stroke-width:0.5;" width="15" x="403.391" y="345.89"/><rect fill="#F1F1F1" height="2" style="stroke:#181818;stroke-width:0.5;" width="4" x="401.391" y="347.89"/><rect fill="#F1F1F1" height="2" style="stroke:#181818;stroke-width:0.5;" width="4" x="401.391" y="351.89"/><text fill="#000000" font-family="sans-serif" font-size="14" lengthAdjust="spacing" textLength="134.791" x="263.6" y="373.8851">Azure Blob Storage</text></g><!--entity Mass Email Provider--><g class="entity" data-entity="Mass Email Provider" data-source-line="8" data-uid="ent0011" id="entity_Mass Email Provider"><rect fill="#F1F1F1" height="46.2969" rx="2.5" ry="2.5" style="stroke:#181818;stroke-width:0.5;" width="181.1826" x="458.41" y="340.89"/><rect fill="#F1F1F1" height="10" style="stroke:#181818;stroke-width:0.5;" width="15" x="619.5926" y="345.89"/><rect fill="#F1F1F1" height="2" style="stroke:#181818;stroke-width:0.5;" width="4" x="617.5926" y="347.89"/><rect fill="#F1F1F1" height="2" style="stroke:#181818;stroke-width:0.5;" width="4" x="617.5926" y="351.89"/><text fill="#000000" font-family="sans-serif" font-size="14" lengthAdjust="spacing" textLength="141.1826" x="473.41" y="373.8851">Mass Email Provider</text></g><!--entity Admin Interface--><g class="entity" data-entity="Admin Interface" data-source-line="11" data-uid="ent0013" id="entity_Admin Interface"><rect fill="#F1F1F1" height="46.2969" rx="2.5" ry="2.5" style="stroke:#181818;stroke-width:0.5;" width="151.9932" x="51" y="113.3"/><rect fill="#F1F1F1" height="10" style="stroke:#181818;stroke-width:0.5;" width="15" x="182.9932" y="118.3"/><rect fill="#F1F1F1" height="2" style="stroke:#181818;stroke-width:0.5;" width="4" x="180.9932" y="120.3"/><rect fill="#F1F1F1" height="2" style="stroke:#181818;stroke-width:0.5;" width="4" x="180.9932" y="124.3"/><text fill="#000000" font-family="sans-serif" font-size="14" lengthAdjust="spacing" textLength="111.9932" x="66" y="146.2951">Admin Interface</text></g><!--entity Browser--><g class="entity" data-entity="Browser" data-source-line="12" data-uid="ent0015" id="entity_Browser"><rect fill="#F1F1F1" height="46.2969" rx="2.5" ry="2.5" style="stroke:#181818;stroke-width:0.5;" width="97.0391" x="287.48" y="7"/><rect fill="#F1F1F1" height="10" style="stroke:#181818;stroke-width:0.5;" width="15" x="364.5191" y="12"/><rect fill="#F1F1F1" height="2" style="stroke:#181818;stroke-width:0.5;" width="4" x="362.5191" y="14"/><rect fill="#F1F1F1" height="2" style="stroke:#181818;stroke-width:0.5;" width="4" x="362.5191" y="18"/><text fill="#000000" font-family="sans-serif" font-size="14" lengthAdjust="spacing" textLength="57.0391" x="302.48" y="39.9951">Browser</text></g><!--link Blazor Frontend to ASP.NET Core Backend--><g class="link" data-entity-1="Blazor Frontend" data-entity-2="ASP.NET Core Backend" data-source-line="2" data-uid="lnk5" id="link_Blazor Frontend_ASP.NET Core Backend"><path d="M336,160.08 C336,177.57 336,195.68 336,213.16" fill="none" id="Blazor Frontend-to-ASP.NET Core Backend" style="stroke:#181818;stroke-width:1;"/><polygon fill="#181818" points="336,219.16,340,210.16,336,214.16,332,210.16,336,219.16" style="stroke:#181818;stroke-width:1;"/></g><!--link ASP.NET Core Backend to PostgreSQL Database--><g class="link" data-entity-1="ASP.NET Core Backend" data-entity-2="PostgreSQL Database" data-source-line="6" data-uid="lnk8" id="link_ASP.NET Core Backend_PostgreSQL Database"><path d="M291.05,266.34 C272.37,275.88 250.53,287.23 231,297.89 C205.85,311.62 183.148,324.6488 161.368,337.3988" fill="none" id="ASP.NET Core Backend-to-PostgreSQL Database" style="stroke:#181818;stroke-width:1;"/><polygon fill="#181818" points="156.19,340.43,165.9778,339.3352,160.505,337.904,161.9362,332.4312,156.19,340.43" style="stroke:#181818;stroke-width:1;"/></g><!--link ASP.NET Core Backend to Azure Blob Storage--><g class="link" data-entity-1="ASP.NET Core Backend" data-entity-2="Azure Blob Storage" data-source-line="7" data-uid="lnk10" id="link_ASP.NET Core Backend_Azure Blob Storage"><path d="M336,266.18 C336,287.51 336,313.41 336,334.7" fill="none" id="ASP.NET Core Backend-to-Azure Blob Storage" style="stroke:#181818;stroke-width:1;"/><polygon fill="#181818" points="336,340.7,340,331.7,336,335.7,332,331.7,336,340.7" style="stroke:#181818;stroke-width:1;"/></g><!--link ASP.NET Core Backend to Mass Email Provider--><g class="link" data-entity-1="ASP.NET Core Backend" data-entity-2="Mass Email Provider" data-source-line="8" data-uid="lnk12" id="link_ASP.NET Core Backend_Mass Email Provider"><path d="M381.31,266.28 C399.95,275.76 421.66,287.09 441,297.89 C465.28,311.46 486.9416,324.453 507.7516,337.273" fill="none" id="ASP.NET Core Backend-to-Mass Email Provider" style="stroke:#181818;stroke-width:1;"/><polygon fill="#181818" points="512.86,340.42,507.2954,332.2938,508.603,337.7975,503.0993,339.105,512.86,340.42" style="stroke:#181818;stroke-width:1;"/></g><!--link Admin Interface to ASP.NET Core Backend--><g class="link" data-entity-1="Admin Interface" data-entity-2="ASP.NET Core Backend" data-source-line="11" data-uid="lnk14" id="link_Admin Interface_ASP.NET Core Backend"><path d="M172.35,160.08 C207.41,177.57 250.331,199.0016 285.371,216.4816" fill="none" id="Admin Interface-to-ASP.NET Core Backend" style="stroke:#181818;stroke-width:1;"/><polygon fill="#181818" points="290.74,219.16,284.4721,211.5631,286.2658,216.928,280.9009,218.7218,290.74,219.16" style="stroke:#181818;stroke-width:1;"/></g><!--link Browser to Blazor Frontend--><g class="link" data-entity-1="Browser" data-entity-2="Blazor Frontend" data-source-line="12" data-uid="lnk16" id="link_Browser_Blazor Frontend"><path d="M336,53.78 C336,71.28 336,89.38 336,106.86" fill="none" id="Browser-to-Blazor Frontend" style="stroke:#181818;stroke-width:1;"/><polygon fill="#181818" points="336,112.86,340,103.86,336,107.86,332,103.86,336,112.86" style="stroke:#181818;stroke-width:1;"/></g><!--SRC=[XP312e9048Rl-nI3Ttk4GCiWg30CEYmUHfr2KcUPtGoCtZtDkaJaTMQ-R-OVW_a5pmJUaJ88ZF7WhW1qM6770YlXnb5JfE3xSz114izsqG4MB0HXJmujzL3AV2m9ILlcPD-Qdy3eYjcwir2oty0I7MPeAPr0Wkuwr2hE874i_S8fOelMGbHZMK4it9O5oUjU7HHrsS2w3oSdpEblFXqAtsnFZaFVhta2]--></g></svg>