<svg xmlns="http://www.w3.org/2000/svg" xmlns:xlink="http://www.w3.org/1999/xlink" contentStyleType="text/css" data-diagram-type="DESCRIPTION" height="679px" preserveAspectRatio="none" style="width:534px;height:679px;background:#FFFFFF;" version="1.1" viewBox="0 0 534 679" width="534px" zoomAndPan="magnify"><defs/><g><!--entity PU--><g class="entity" data-entity="PU" data-source-line="2" data-uid="ent0002" id="entity_PU"><ellipse cx="71.4244" cy="562.23" fill="#F1F1F1" rx="8" ry="8" style="stroke:#181818;stroke-width:0.5;"/><path d="M71.4244,570.23 L71.4244,597.23 M58.4244,578.23 L84.4244,578.23 M71.4244,597.23 L58.4244,612.23 M71.4244,597.23 L84.4244,612.23" fill="none" style="stroke:#181818;stroke-width:0.5;"/><text fill="#000000" font-family="sans-serif" font-size="14" lengthAdjust="spacing" textLength="73.5889" x="34.63" y="626.7251">PublicUser</text></g><!--entity AU--><g class="entity" data-entity="AU" data-source-line="3" data-uid="ent0003" id="entity_AU"><ellipse cx="71.4268" cy="277.23" fill="#F1F1F1" rx="8" ry="8" style="stroke:#181818;stroke-width:0.5;"/><path d="M71.4268,285.23 L71.4268,312.23 M58.4268,293.23 L84.4268,293.23 M71.4268,312.23 L58.4268,327.23 M71.4268,312.23 L84.4268,327.23" fill="none" style="stroke:#181818;stroke-width:0.5;"/><text fill="#000000" font-family="sans-serif" font-size="14" lengthAdjust="spacing" textLength="130.8535" x="6" y="341.7251">AuthenticatedUser</text></g><!--entity AD--><g class="entity" data-entity="AD" data-source-line="4" data-uid="ent0004" id="entity_AD"><ellipse cx="71.4221" cy="29.23" fill="#F1F1F1" rx="8" ry="8" style="stroke:#181818;stroke-width:0.5;"/><path d="M71.4221,37.23 L71.4221,64.23 M58.4221,45.23 L84.4221,45.23 M71.4221,64.23 L58.4221,79.23 M71.4221,64.23 L84.4221,79.23" fill="none" style="stroke:#181818;stroke-width:0.5;"/><text fill="#000000" font-family="sans-serif" font-size="14" lengthAdjust="spacing" textLength="44.8643" x="48.99" y="93.7251">Admin</text></g><!--entity MM--><g class="entity" data-entity="MM" data-source-line="5" data-uid="ent0005" id="entity_MM"><ellipse cx="488.3564" cy="277.23" fill="#F1F1F1" rx="8" ry="8" style="stroke:#181818;stroke-width:0.5;"/><path d="M488.3564,285.23 L488.3564,312.23 M475.3564,293.23 L501.3564,293.23 M488.3564,312.23 L475.3564,327.23 M488.3564,312.23 L501.3564,327.23" fill="none" style="stroke:#181818;stroke-width:0.5;"/><text fill="#000000" font-family="sans-serif" font-size="14" lengthAdjust="spacing" textLength="78.0527" x="449.33" y="341.7251">MassMailer</text></g><!--entity Search Properties--><g class="entity" data-entity="Search Properties" data-source-line="7" data-uid="ent0006" id="entity_Search Properties"><ellipse cx="293.0858" cy="523.8812" fill="#F1F1F1" rx="77.2558" ry="17.8512" style="stroke:#181818;stroke-width:0.5;"/><text fill="#000000" font-family="sans-serif" font-size="14" lengthAdjust="spacing" textLength="124.1611" x="231.0052" y="528.5296">Search Properties</text></g><!--entity View Listings--><g class="entity" data-entity="View Listings" data-source-line="8" data-uid="ent0008" id="entity_View Listings"><ellipse cx="293.093" cy="591.8846" fill="#F1F1F1" rx="64.223" ry="15.2446" style="stroke:#181818;stroke-width:0.5;"/><text fill="#000000" font-family="sans-serif" font-size="14" lengthAdjust="spacing" textLength="91.3965" x="247.3948" y="596.533">View Listings</text></g><!--entity Contact Seller--><g class="entity" data-entity="Contact Seller" data-source-line="9" data-uid="ent0010" id="entity_Contact Seller"><ellipse cx="293.0938" cy="657.8788" fill="#F1F1F1" rx="66.9438" ry="15.7888" style="stroke:#181818;stroke-width:0.5;"/><text fill="#000000" font-family="sans-serif" font-size="14" lengthAdjust="spacing" textLength="98.5674" x="243.8101" y="662.5272">Contact Seller</text></g><!--entity Save Properties--><g class="entity" data-entity="Save Properties" data-source-line="11" data-uid="ent0012" id="entity_Save Properties"><ellipse cx="293.0948" cy="161.879" fill="#F1F1F1" rx="71.4948" ry="16.699" style="stroke:#181818;stroke-width:0.5;"/><text fill="#000000" font-family="sans-serif" font-size="14" lengthAdjust="spacing" textLength="110.1201" x="238.0347" y="166.5274">Save Properties</text></g><!--entity Save Search Criteria--><g class="entity" data-entity="Save Search Criteria" data-source-line="12" data-uid="ent0014" id="entity_Save Search Criteria"><ellipse cx="293.0949" cy="232.885" fill="#F1F1F1" rx="85.4749" ry="19.495" style="stroke:#181818;stroke-width:0.5;"/><text fill="#000000" font-family="sans-serif" font-size="14" lengthAdjust="spacing" textLength="143.418" x="221.3859" y="237.5334">Save Search Criteria</text></g><!--entity Receive Notifications--><g class="entity" data-entity="Receive Notifications" data-source-line="13" data-uid="ent0016" id="entity_Receive Notifications"><ellipse cx="293.0911" cy="306.8822" fill="#F1F1F1" rx="87.2611" ry="19.8522" style="stroke:#181818;stroke-width:0.5;"/><text fill="#000000" font-family="sans-serif" font-size="14" lengthAdjust="spacing" textLength="147.5127" x="219.3347" y="311.5306">Receive Notifications</text></g><!--entity Register as Professional--><g class="entity" data-entity="Register as Professional" data-source-line="14" data-uid="ent0018" id="entity_Register as Professional"><ellipse cx="293.0892" cy="383.8778" fill="#F1F1F1" rx="96.2392" ry="21.6478" style="stroke:#181818;stroke-width:0.5;"/><text fill="#000000" font-family="sans-serif" font-size="14" lengthAdjust="spacing" textLength="167.7334" x="209.2225" y="388.5263">Register as Professional</text></g><!--entity Post Property--><g class="entity" data-entity="Post Property" data-source-line="15" data-uid="ent0020" id="entity_Post Property"><ellipse cx="293.094" cy="455.8828" fill="#F1F1F1" rx="65.214" ry="15.4428" style="stroke:#181818;stroke-width:0.5;"/><text fill="#000000" font-family="sans-serif" font-size="14" lengthAdjust="spacing" textLength="94.0352" x="246.0764" y="460.5312">Post Property</text></g><!--entity Moderate Listings--><g class="entity" data-entity="Moderate Listings" data-source-line="17" data-uid="ent0022" id="entity_Moderate Listings"><ellipse cx="293.0859" cy="23.8752" fill="#F1F1F1" rx="77.3759" ry="17.8752" style="stroke:#181818;stroke-width:0.5;"/><text fill="#000000" font-family="sans-serif" font-size="14" lengthAdjust="spacing" textLength="124.4482" x="230.8617" y="28.5236">Moderate Listings</text></g><!--entity Moderate Users--><g class="entity" data-entity="Moderate Users" data-source-line="18" data-uid="ent0024" id="entity_Moderate Users"><ellipse cx="293.0915" cy="93.8783" fill="#F1F1F1" rx="71.5415" ry="16.7083" style="stroke:#181818;stroke-width:0.5;"/><text fill="#000000" font-family="sans-serif" font-size="14" lengthAdjust="spacing" textLength="110.2363" x="237.9733" y="98.5267">Moderate Users</text></g><!--link PU to Search Properties--><g class="link" data-entity-1="PU" data-entity-2="Search Properties" data-source-line="7" data-uid="lnk7" id="link_PU_Search Properties"><path d="M108.7,580.65 C146.11,569.07 198.8582,552.744 239.6982,540.104" fill="none" id="PU-to-Search Properties" style="stroke:#181818;stroke-width:1;"/><polygon fill="#181818" points="245.43,538.33,235.6497,537.1698,240.6535,539.8083,238.015,544.8121,245.43,538.33" style="stroke:#181818;stroke-width:1;"/></g><!--link PU to View Listings--><g class="link" data-entity-1="PU" data-entity-2="View Listings" data-source-line="8" data-uid="lnk9" id="link_PU_View Listings"><path d="M108.7,591.88 C141.24,591.88 183.71,591.88 222.65,591.88" fill="none" id="PU-to-View Listings" style="stroke:#181818;stroke-width:1;"/><polygon fill="#181818" points="228.65,591.88,219.65,587.88,223.65,591.88,219.65,595.88,228.65,591.88" style="stroke:#181818;stroke-width:1;"/></g><!--link PU to Contact Seller--><g class="link" data-entity-1="PU" data-entity-2="Contact Seller" data-source-line="9" data-uid="lnk11" id="link_PU_Contact Seller"><path d="M108.7,602.78 C147.69,614.5 203.8337,631.3636 244.7737,643.6636" fill="none" id="PU-to-Contact Seller" style="stroke:#181818;stroke-width:1;"/><polygon fill="#181818" points="250.52,645.39,243.0515,638.9696,245.7314,643.9513,240.7497,646.6312,250.52,645.39" style="stroke:#181818;stroke-width:1;"/></g><!--link AU to Save Properties--><g class="link" data-entity-1="AU" data-entity-2="Save Properties" data-source-line="11" data-uid="lnk13" id="link_AU_Save Properties"><path d="M108.07,268.24 C131.45,244.73 163.75,215.53 196.85,195.88 C211.8,187.01 223.7418,181.8291 239.7418,176.4591" fill="none" id="AU-to-Save Properties" style="stroke:#181818;stroke-width:1;"/><polygon fill="#181818" points="245.43,174.55,235.625,173.6215,240.6899,176.1409,238.1705,181.2058,245.43,174.55" style="stroke:#181818;stroke-width:1;"/></g><!--link AU to Save Search Criteria--><g class="link" data-entity-1="AU" data-entity-2="Save Search Criteria" data-source-line="12" data-uid="lnk15" id="link_AU_Save Search Criteria"><path d="M137.15,285.08 C171.32,273.57 206.8537,261.5948 238.1837,251.0448" fill="none" id="AU-to-Save Search Criteria" style="stroke:#181818;stroke-width:1;"/><polygon fill="#181818" points="243.87,249.13,234.0641,248.2113,239.1314,250.7257,236.6171,255.793,243.87,249.13" style="stroke:#181818;stroke-width:1;"/></g><!--link AU to Receive Notifications--><g class="link" data-entity-1="AU" data-entity-2="Receive Notifications" data-source-line="13" data-uid="lnk17" id="link_AU_Receive Notifications"><path d="M137.15,306.88 C158.53,306.88 176.68,306.88 199.44,306.88" fill="none" id="AU-to-Receive Notifications" style="stroke:#181818;stroke-width:1;"/><polygon fill="#181818" points="205.44,306.88,196.44,302.88,200.44,306.88,196.44,310.88,205.44,306.88" style="stroke:#181818;stroke-width:1;"/></g><!--link AU to Register as Professional--><g class="link" data-entity-1="AU" data-entity-2="Register as Professional" data-source-line="14" data-uid="lnk19" id="link_AU_Register as Professional"><path d="M137.15,329.57 C169.8,341.01 203.2281,352.7245 233.9681,363.5045" fill="none" id="AU-to-Register as Professional" style="stroke:#181818;stroke-width:1;"/><polygon fill="#181818" points="239.63,365.49,232.4608,358.737,234.9117,363.8354,229.8134,366.2863,239.63,365.49" style="stroke:#181818;stroke-width:1;"/></g><!--link AU to Post Property--><g class="link" data-entity-1="AU" data-entity-2="Post Property" data-source-line="15" data-uid="lnk21" id="link_AU_Post Property"><path d="M105.88,345.52 C129.24,370.49 162.32,402.09 196.85,422.88 C212.29,432.18 225.0098,437.5291 241.5298,442.7591" fill="none" id="AU-to-Post Property" style="stroke:#181818;stroke-width:1;"/><polygon fill="#181818" points="247.25,444.57,239.877,438.0401,242.4832,443.0609,237.4624,445.6671,247.25,444.57" style="stroke:#181818;stroke-width:1;"/></g><!--link AD to Moderate Listings--><g class="link" data-entity-1="AD" data-entity-2="Moderate Listings" data-source-line="17" data-uid="lnk23" id="link_AD_Moderate Listings"><path d="M94.29,55.4 C125.33,50.45 177.4848,42.1445 222.7148,34.9345" fill="none" id="AD-to-Moderate Listings" style="stroke:#181818;stroke-width:1;"/><polygon fill="#181818" points="228.64,33.99,219.1225,31.4567,223.7023,34.7771,220.3819,39.3569,228.64,33.99" style="stroke:#181818;stroke-width:1;"/></g><!--link AD to Moderate Users--><g class="link" data-entity-1="AD" data-entity-2="Moderate Users" data-source-line="18" data-uid="lnk25" id="link_AD_Moderate Users"><path d="M94.29,62.37 C126.31,67.47 181.1649,76.2052 226.9449,83.5052" fill="none" id="AD-to-Moderate Users" style="stroke:#181818;stroke-width:1;"/><polygon fill="#181818" points="232.87,84.45,224.6122,79.0827,227.9324,83.6627,223.3524,86.9829,232.87,84.45" style="stroke:#181818;stroke-width:1;"/></g><!--link Receive Notifications to MM--><g class="link" data-entity-1="Receive Notifications" data-entity-2="MM" data-source-line="20" data-uid="lnk26" id="link_Receive Notifications_MM"><path d="M380.83,306.88 C404.72,306.88 423.41,306.88 443.01,306.88" fill="none" id="Receive Notifications-to-MM" style="stroke:#181818;stroke-width:1;"/><polygon fill="#181818" points="449.01,306.88,440.01,302.88,444.01,306.88,440.01,310.88,449.01,306.88" style="stroke:#181818;stroke-width:1;"/></g><!--SRC=[TP2nRiCm34HtVGN7PiWl532IiIg41ixEohHDG9KAaccHlu-Ss8c3ekkzm_6EYNe3Ao0yZ0OT2qNZaXr6AmBXz9aujae2g13QMMvEDb8sZcZKBRIvq-wByrNPpuf7LO-SRaRldGijRBUly78Wb3X2aF9DOaowkQCZqo-yiHhdOINlIhQQ2WTADM_ZNBD4uGyz1Js1-T1Es4WO7_I38d4rl1VZVbfKr-iQ3xN2l5zAJwhLWEdX24LjkNkU-knlkYyTINtGQiCVDFskwkwV5bUtznS0]--></g></svg>